<svg version="1.1" id="Layer_1" xmlns="http://www.w3.org/2000/svg" xmlns:xlink="http://www.w3.org/1999/xlink" x="0px" y="0px"
	 width="100%" viewBox="0 0 226 218" enable-background="new 0 0 226 218" xml:space="preserve">
<path fill="#C41A18" opacity="1.000000" stroke="none" 
    d="
    M97.825394,22.465378 
    C98.290939,22.261377 98.463646,22.214697 98.900574,22.121145 
    C99.321426,21.908781 99.478035,21.743288 99.969315,21.651600 
    C101.226280,22.027624 102.129143,21.910324 103.377441,21.551044 
    C104.471077,21.484528 105.168335,21.244568 106.261505,21.061611 
    C110.293968,20.943535 113.949219,21.069502 117.993523,20.894501 
    C118.641075,20.780172 118.897865,20.721769 119.527679,20.793348 
    C120.366356,20.969587 120.832024,21.015846 121.649384,21.097786 
    C123.700729,21.896368 125.517570,21.267384 127.524109,21.845757 
    C147.119125,25.272087 163.648727,33.603535 176.799744,48.795723 
    C178.380295,50.035439 179.060974,51.713642 180.755814,52.819706 
    C180.999649,53.018295 180.990540,53.009460 180.984222,53.007568 
    C182.089813,54.575542 182.786514,56.456223 184.644043,57.871658 
    C186.301605,60.117527 188.546051,61.605148 188.922287,64.684814 
    C189.728958,65.748917 189.865295,66.842003 190.813797,67.767776 
    C191.038345,67.969101 191.010651,68.004173 191.017426,67.984306 
    C191.239365,68.205437 191.445587,68.453850 191.726837,68.936829 
    C191.810822,69.163986 191.863571,69.545746 191.913422,69.731888 
    C193.675934,74.448341 195.436951,78.959274 197.592804,83.693008 
    C197.876328,84.720261 197.939789,85.454575 198.025879,86.557220 
    C199.369370,88.551369 198.673386,90.660515 199.543915,92.750305 
    C199.767349,93.802055 199.815994,94.539665 199.902466,95.645645 
    C200.005554,96.769699 200.197678,97.496658 200.468613,98.593071 
    C200.700516,100.502190 201.144470,102.004623 200.998749,103.968658 
    C201.039154,108.154457 200.916321,111.943764 201.152557,116.131599 
    C201.418091,117.051384 201.484222,117.585854 201.209015,118.479546 
    C200.032425,119.217583 200.201508,119.785789 200.768402,120.676880 
    C199.699722,122.219933 200.181686,123.906982 199.678558,125.659546 
    C199.769516,126.421700 199.835342,126.855988 199.885101,127.619331 
    C198.513977,130.289780 198.229568,132.976227 197.255035,135.814758 
    C194.139893,150.337997 186.938217,162.068268 176.360809,171.843826 
    C174.482483,173.579773 173.001251,172.881500 171.145798,171.514740 
    C165.264069,167.182205 160.782532,161.422379 155.467575,156.513336 
    C147.227158,148.902237 139.425613,140.818253 131.302444,133.076965 
    C127.462959,129.417969 127.304810,128.560577 131.563629,126.025238 
    C135.238846,124.422569 138.466949,122.766037 140.739502,119.275986 
    C140.910141,118.977089 140.917404,118.926041 140.943176,118.926819 
    C141.241180,118.764465 141.472305,118.555801 141.816772,118.124893 
    C141.971191,117.948189 142.137283,117.507774 142.209229,117.283691 
    C142.662643,116.500107 143.061417,115.953712 143.714661,115.175598 
    C143.923004,114.908928 144.068039,114.466644 144.129318,114.242126 
    C144.304550,113.832939 144.418503,113.648285 144.766052,113.237015 
    C144.999649,113.010391 144.999252,112.997101 145.005630,112.999985 
    C145.437073,112.600204 145.791687,112.152817 145.936157,111.275787 
    C146.335876,109.641022 146.724396,108.295372 147.206482,106.605164 
    C147.369171,106.068741 147.438324,105.876877 147.640488,105.409302 
    C147.883575,103.713516 148.107773,102.293137 147.677765,100.578079 
    C147.599640,100.076500 147.605301,99.871193 147.777527,99.406715 
    C148.015656,98.968079 148.087219,98.788620 148.255768,98.336044 
    C148.372604,97.874657 148.392441,97.686394 148.382492,97.215721 
    C148.280930,96.751778 148.209152,96.570244 148.009476,96.125290 
    C147.774780,95.694679 147.667999,95.527473 147.623016,95.069443 
    C148.016815,93.820045 148.040146,92.843666 147.756439,91.575821 
    C147.529617,90.924469 147.410477,90.549034 147.289398,89.875610 
    C145.325272,81.442627 140.342316,75.557137 133.479843,71.090996 
    C132.137558,70.217422 130.706085,69.480873 129.128143,68.391815 
    C128.772369,67.816635 128.563614,67.564384 128.124420,67.188652 
    C127.934624,67.031563 127.471458,66.959877 127.238335,66.983757 
    C124.888336,66.487968 122.781342,65.924706 120.250656,65.477264 
    C119.618843,65.312546 119.364922,65.234177 118.707550,65.100464 
    C106.236679,65.016365 94.169228,65.030449 81.678383,65.053131 
    C80.425179,65.211006 79.632683,65.541695 78.386185,65.681595 
    C77.816383,65.885338 77.639137,65.947197 77.201904,66.117294 
    C76.429283,66.785919 76.522003,67.534042 76.210083,68.539825 
    C75.940910,69.374428 75.796906,69.864639 75.606705,70.762291 
    C75.650490,81.703331 75.077377,92.244644 75.919037,103.232262 
    C76.091682,123.656601 75.990532,143.621063 76.009636,164.060272 
    C76.007645,172.307983 75.968636,180.080917 76.003815,188.317886 
    C72.993095,190.735107 70.366943,190.089355 67.892990,187.336792 
    C66.881134,186.748077 65.827026,186.997131 65.129059,185.870544 
    C57.355293,182.381638 52.008739,176.244003 46.734776,170.026367 
    C45.680370,168.783310 44.699463,167.477905 43.374390,166.058044 
    C42.880596,165.779922 42.697079,165.645004 42.246346,165.297150 
    C41.979126,165.084213 41.871338,165.093887 41.863449,165.040344 
    C41.376301,162.487976 40.104256,160.397003 38.290058,158.213287 
    C38.074993,157.952255 38.012039,157.980774 38.024517,157.948547 
    C37.631329,157.716766 37.245846,157.483810 36.717690,156.921021 
    C36.240467,153.117661 33.531635,150.673233 32.282528,147.225952 
    C32.066036,146.966934 32.003212,146.983292 32.020588,146.955872 
    C31.879599,146.736954 31.721235,146.545441 31.533981,145.982391 
    C29.461641,139.580902 28.264887,133.276566 25.293644,127.259270 
    C24.969528,127.076347 24.868906,127.083031 24.862629,127.033005 
    C24.088432,125.395447 24.471737,123.723984 24.499359,121.665314 
    C24.483683,118.785843 24.536392,116.319237 24.363224,113.455933 
    C24.223774,112.599937 24.188023,112.141197 24.111382,111.339478 
    C23.937586,109.716118 24.594412,108.525940 24.499207,106.861641 
    C24.507938,105.415993 24.476105,104.357841 24.660273,102.904312 
    C25.283989,98.879013 24.614283,95.165016 25.773407,91.198830 
    C25.021425,88.558807 26.610102,86.745132 27.130016,84.371094 
    C27.295794,83.833237 27.407492,83.654648 27.757011,83.268028 
    C28.044130,82.890839 28.093426,82.721680 28.203449,82.295303 
    C28.358107,81.836555 28.452032,81.635033 28.765236,81.182228 
    C28.984514,80.930946 29.115334,80.474457 29.179840,80.245956 
    C29.500467,77.659180 31.526228,75.935745 31.786613,73.222214 
    C32.153271,70.381264 33.803078,68.518044 35.201260,66.128738 
    C36.088795,64.192390 36.166851,62.286190 37.872078,60.802654 
    C44.124123,53.423920 49.495487,45.718399 57.111958,40.011833 
    C63.652279,35.111561 70.603821,31.019453 78.563103,27.940256 
    C81.047234,27.710087 82.888924,26.864990 84.814713,25.398100 
    C85.044556,25.141748 85.541489,25.092844 85.784981,25.148043 
    C88.062881,25.319319 89.887817,24.744576 91.779655,23.337145 
    C92.038216,23.136538 92.512825,23.083044 92.746765,23.131027 
    C94.532394,23.275118 96.043625,23.040108 97.825394,22.465378 
    z"/>
</svg>